<?xml version="1.0" encoding="UTF-8" standalone="no"?>
<!-- Created with Inkscape (http://www.inkscape.org/) -->

<svg
   xmlns:dc="http://purl.org/dc/elements/1.1/"
   xmlns:cc="http://creativecommons.org/ns#"
   xmlns:rdf="http://www.w3.org/1999/02/22-rdf-syntax-ns#"
   xmlns:svg="http://www.w3.org/2000/svg"
   xmlns="http://www.w3.org/2000/svg"
   xmlns:sodipodi="http://sodipodi.sourceforge.net/DTD/sodipodi-0.dtd"
   xmlns:inkscape="http://www.inkscape.org/namespaces/inkscape"
   width="297mm"
   height="210mm"
   viewBox="0 0 297 210"
   version="1.1"
   id="svg8"
   inkscape:version="0.92.2 (5c3e80d, 2017-08-06)"
   sodipodi:docname="black.svg">
  <defs
     id="defs2">
    <linearGradient
       id="linearGradient861"
       spreadMethod="pad"
       gradientTransform="matrix(843.69043,0,0,843.69043,371.37354,-1169.4922)"
       gradientUnits="userSpaceOnUse"
       y2="0"
       x2="1"
       y1="0"
       x1="0">
      <stop
         id="stop855"
         offset="0"
         style="stop-opacity:1;stop-color:#231f20" />
      <stop
         id="stop857"
         offset="0.32805385"
         style="stop-opacity:1;stop-color:#ffffff" />
      <stop
         id="stop859"
         offset="1"
         style="stop-opacity:1;stop-color:#ffffff" />
    </linearGradient>
    <linearGradient
       id="linearGradient887"
       spreadMethod="pad"
       gradientTransform="matrix(-947.96484,8e-5,-8e-5,-947.96484,1314.3735,-1035.4766)"
       gradientUnits="userSpaceOnUse"
       y2="0"
       x2="1"
       y1="0"
       x1="0">
      <stop
         id="stop877"
         offset="0"
         style="stop-opacity:1;stop-color:#231f20" />
      <stop
         id="stop879"
         offset="0.10075664"
         style="stop-opacity:1;stop-color:#231f20" />
      <stop
         id="stop881"
         offset="0.25281"
         style="stop-opacity:1;stop-color:#231f20" />
      <stop
         id="stop883"
         offset="0.66188847"
         style="stop-opacity:1;stop-color:#ffffff" />
      <stop
         id="stop885"
         offset="1"
         style="stop-opacity:1;stop-color:#ffffff" />
    </linearGradient>
    <linearGradient
       id="linearGradient927"
       spreadMethod="pad"
       gradientTransform="matrix(843.69092,0,0,843.69092,367.37402,-691.01172)"
       gradientUnits="userSpaceOnUse"
       y2="0"
       x2="1"
       y1="0"
       x1="0">
      <stop
         id="stop919"
         offset="0"
         style="stop-opacity:1;stop-color:#ffffff" />
      <stop
         id="stop921"
         offset="0.00562"
         style="stop-opacity:1;stop-color:#ffffff" />
      <stop
         id="stop923"
         offset="0.38362789"
         style="stop-opacity:1;stop-color:#231f20" />
      <stop
         id="stop925"
         offset="1"
         style="stop-opacity:1;stop-color:#231f20" />
    </linearGradient>
    <linearGradient
       id="linearGradient951"
       spreadMethod="pad"
       gradientTransform="matrix(-947.96436,8e-5,-8e-5,-947.96436,1310.3735,-556.99561)"
       gradientUnits="userSpaceOnUse"
       y2="0"
       x2="1"
       y1="0"
       x1="0">
      <stop
         id="stop943"
         offset="0"
         style="stop-opacity:1;stop-color:#ffffff" />
      <stop
         id="stop945"
         offset="0.19662"
         style="stop-opacity:1;stop-color:#ffffff" />
      <stop
         id="stop947"
         offset="0.52787247"
         style="stop-opacity:1;stop-color:#231f20" />
      <stop
         id="stop949"
         offset="1"
         style="stop-opacity:1;stop-color:#231f20" />
    </linearGradient>
    <clipPath
       id="clipPath1120"
       clipPathUnits="userSpaceOnUse">
      <path
         inkscape:connector-curvature="0"
         id="path1118"
         d="m 12150.6,8017.51 v 8.87 l -8157.79,40 c 0,0 -279.07,-16.75 -279.07,207.72 v -296.59 l 8436.86,40" />
    </clipPath>
    <linearGradient
       id="linearGradient1126"
       spreadMethod="pad"
       gradientTransform="matrix(8436.9,0,0,-8436.9,3713.74,8125.8)"
       gradientUnits="userSpaceOnUse"
       y2="0"
       x2="1"
       y1="0"
       x1="0">
      <stop
         id="stop1122"
         offset="0"
         style="stop-opacity:1;stop-color:#231f20" />
      <stop
         id="stop1124"
         offset="1"
         style="stop-opacity:1;stop-color:#ffffff" />
    </linearGradient>
    <clipPath
       id="clipPath1136"
       clipPathUnits="userSpaceOnUse">
      <path
         inkscape:connector-curvature="0"
         id="path1134"
         d="m 11133.1,5635.96 -7469.02,-40 v -5.91 l 7726.62,-40.72 c 593.9,0 1753,0 1753,0 v 713.12 c 0,0 -80,-619.86 -619.8,-619.86 -300.8,0 -426.6,0 -426.6,0 0,0 -346.6,-10.46 -346.6,359.94 0,406.53 0,1779.51 0,1779.51 0,0 -19.5,239.68 189.7,239.68 l -880.8,0.25 c 0,0 324.6,-1.09 324.6,-253.26 0,-213.31 0,-1681.97 0,-1906.15 0,-224.18 -251.1,-226.6 -251.1,-226.6" />
    </clipPath>
    <linearGradient
       id="linearGradient1144"
       spreadMethod="pad"
       gradientTransform="matrix(-9479.65,-8.287e-4,-8.287e-4,9479.65,13143.7,6785.65)"
       gradientUnits="userSpaceOnUse"
       y2="0"
       x2="1"
       y1="0"
       x1="0">
      <stop
         id="stop1138"
         offset="0"
         style="stop-opacity:1;stop-color:#231f20" />
      <stop
         id="stop1140"
         offset="0.247191"
         style="stop-opacity:1;stop-color:#454142" />
      <stop
         id="stop1142"
         offset="1"
         style="stop-opacity:1;stop-color:#ffffff" />
    </linearGradient>
  </defs>
  <sodipodi:namedview
     id="base"
     pagecolor="#ffffff"
     bordercolor="#666666"
     borderopacity="1.0"
     inkscape:pageopacity="0.0"
     inkscape:pageshadow="2"
     inkscape:zoom="0.38710899"
     inkscape:cx="152.3151"
     inkscape:cy="420.08199"
     inkscape:document-units="mm"
     inkscape:current-layer="g1252"
     showgrid="false"
     inkscape:window-width="1600"
     inkscape:window-height="837"
     inkscape:window-x="-8"
     inkscape:window-y="-8"
     inkscape:window-maximized="1" />
  <metadata
     id="metadata5">
    <rdf:RDF>
      <cc:Work
         rdf:about="">
        <dc:format>image/svg+xml</dc:format>
        <dc:type
           rdf:resource="http://purl.org/dc/dcmitype/StillImage" />
        <dc:title></dc:title>
      </cc:Work>
    </rdf:RDF>
  </metadata>
  <g
     style="display:inline"
     id="g1252"
     inkscape:groupmode="layer"
     inkscape:label="Logo"
     transform="translate(0,-87)">
    <path
       style="fill:#000000;fill-opacity:1;fill-rule:nonzero;stroke:none;stroke-width:0.02021774"
       d="m 52.472883,157.6435 c -2.86086,0.002 -5.98458,0.4215 -9.0192,1.63836 -0.44864,0.17973 7.36455,-1.58512 15.5495,1.05047 1.76359,0.56792 3.3425,1.08834 5.54703,1.8732 4.01404,1.42899 8.54803,3.27433 8.54803,3.27433 0,0 7.87487,3.47883 -0.17947,7.18716 -6.17248,2.84201 -16.61834,7.81474 -16.61834,7.81474 0,0 -6.05813,2.4944 -12.03853,-0.62904 -7.5487,-3.94267 -17.06732,-9.29759 -17.06732,-9.29759 0,0 -5.52664,-2.6413 2.69505,-6.33306 l 4.49095,-2.24518 c 0,0 -5.92386,1.06871 -9.20845,2.24518 -2.39391,0.72643 -6.62928,3.38867 -6.67186,11.04938 -0.001,1.04141 0.47177,5.34594 0.47177,5.34594 l 0.76559,-6.33363 c 0,0 0.54839,-5.48373 8.43339,-1.0795 0,0 10.00778,3.90879 20.04933,11.99589 1.50966,1.50965 1.61761,3.98744 1.61761,5.02078 l -0.006,28.36989 c 0,0 0.35072,7.10264 -7.27602,2.8745 -17.51867,-9.7124 -18.59548,-12.39747 -18.59548,-12.39747 0,0 -3.32408,-3.43927 -3.32408,-10.55449 v 9.83571 c 0,0 -0.3138,1.91958 4.40239,4.85196 4.71609,2.93217 19.1339,11.94703 19.1339,11.94703 0,0 4.45199,3.55394 15.2711,-1.52759 4.66668,-2.19172 6.3154,-2.95268 6.89753,-3.2142 -1.30414,0.52348 -8.78405,3.26231 -8.78405,-2.89376 v -9.12938 c 0,-7.02567 6.95032,-7.72632 7.24166,-6.23384 -0.50544,-2.93157 0.0672,-7.1771 0.0672,-7.1771 0,0 -6.3508,5.5007 -7.48036,3.56486 -1.0954,-1.87763 -0.67406,-7.3391 -0.67406,-7.3391 0,0 -0.40435,-6.89587 3.90869,-8.82848 3.52376,-1.57881 14.45431,-7.38944 14.45431,-7.38944 0,0 5.69635,-3.4944 7.90595,3.68332 0.57033,2.15621 0.96487,4.28837 0.96487,4.28837 l 1.01079,-8.48908 c 0,0 0.73937,-6.47854 -9.88161,-10.51037 -10.57894,-4.01584 -11.28659,-4.294 -11.28659,-4.294 0,0 -5.02141,-2.01853 -11.31533,-2.01477 z m 13.8685,62.76277 c 0.12315,-0.0494 0.26862,-0.1081 0.26862,-0.1081 0,0 0.19236,-0.099 -0.26862,0.1081 z m -15.43103,-54.74842 c -2.97726,0 -5.39008,1.20651 -5.39008,2.69474 0,1.48863 2.41282,2.69504 5.39008,2.69504 2.97687,0 5.39008,-1.20641 5.39008,-2.69504 0,-1.48823 -2.41321,-2.69474 -5.39008,-2.69474 z m 36.93687,4.24661 v 5.99631 l 81.482927,-0.38647 17.82073,-0.31541 c 0.15813,-0.003 0.163,-0.0794 5.9e-4,-0.0817 L 130.1022,174.2835 93.489323,174.10403 c 0,0 -5.6421,0.33875 -5.6421,-4.19953 z m 148.516877,5.09719 c 0,0 6.56257,0.0223 6.56257,5.12057 v 38.53789 c 0,4.53242 -5.07674,4.58128 -5.07674,4.58128 l -42.75105,0.22893 -54.76944,0.69981 c -0.29551,0.003 -0.29345,0.12499 2.9e-4,0.12499 l 14.0616,0.23041 88.66684,0.46733 h 35.44156 v -14.41787 c 0,0 -1.61752,12.53225 -12.53105,12.53225 h -8.62472 c 0,0 -7.00741,0.21145 -7.00741,-7.27721 v -35.97731 c 0,0 -0.3943,-4.84574 3.83525,-4.84574 z m -65.69977,3.77068 c 0,0 3.5933,0.0171 3.5933,3.6466 0,3.16953 -0.0127,32.38017 -0.0127,32.38017 0,0 0.23555,4.75423 -3.73219,4.75423 h 21.29586 c 0,0 12.95308,-0.0283 12.95308,-10.85627 0,-10.82823 -9.63912,-10.69509 -10.03681,-11.3556 -0.39545,-0.65971 6.86762,-1.58534 6.86762,-9.1122 0,-7.52707 -5.26335,-9.45693 -12.26273,-9.45693 z m 34.26908,0 c 0,0 3.59329,0.0171 3.59329,3.6466 0,3.16953 -0.0127,32.38017 -0.0127,32.38017 0,0 0.23554,4.75423 -3.73219,4.75423 h 21.29527 c 0,0 12.95366,-0.0283 12.95366,-10.85627 0,-10.82823 -9.63994,-10.69509 -10.03621,-11.3556 -0.39627,-0.65971 6.86821,-1.58534 6.86821,-9.1122 0,-7.52707 -5.26483,-9.45693 -12.26421,-9.45693 z m -46.04462,0.002 -14.01421,29.19529 -11.94674,-29.10585 h -18.83122 c 0,0 3.91846,0.48951 3.91846,3.41441 v 29.19499 c 0,2.13358 -2.33493,7.72558 -9.34261,7.72558 h -8.44406 c -1.751867,0 -6.467797,-1.4389 -6.467797,-9.34202 v -26.4108 c 0,0 -0.35349,-4.49154 3.38983,-4.49154 h -9.22918 v 30.90234 c 0,2.51307 1.07768,10.86901 11.58808,10.86901 h 9.163127 c 0,0 10.95964,0.3359 10.95964,-9.25257 v -29.28473 c 0,0 0.0903,-2.06659 2.87451,-2.06659 2.7846,0 2.96455,1.70626 2.96455,2.24547 v 33.05896 c 0,0 0.31818,4.40092 -3.18637,4.40092 h 7.84583 c -0.7281,-0.0582 -2.50373,-0.5971 -2.50373,-4.49184 v -31.08151 l 15.00279,34.6751 16.61863,-34.85427 v 31.44105 c 0,0 0.37184,4.04226 -3.81747,4.04226 h 13.22702 c 0,0 -3.30158,-0.24076 -3.30158,-3.95252 v -32.87802 c 0,0 -0.2773,-3.95312 3.23553,-3.95312 z m -28.75816,41.05287 c 0.18728,0.015 0.30889,0 0.30889,0 z m 54.48068,-39.34255 c 4.76818,-0.0158 9.18981,0.74908 9.18981,8.07327 0,9.37739 -13.20512,7.92371 -13.20512,7.92371 l 0.0181,-15.92709 c 1.29999,0 2.66217,-0.0655 3.99724,-0.0699 z m 34.26938,0 c 4.7685,-0.0158 9.19009,0.74908 9.19009,8.07327 0,9.37739 -13.2057,7.92371 -13.2057,7.92371 l 0.0181,-15.92709 c 1.30016,0 2.66237,-0.0655 3.99754,-0.0699 z m -185.190157,11.2392 c -0.0462,-6.5e-4 -0.0926,0.001 -0.1389,0.005 -1.4831,0.1306 -2.47424,2.63948 -2.21527,5.6042 0.25919,2.96796 1.67161,5.26395 3.15439,5.13598 1.48357,-0.13122 2.47455,-2.63866 2.21496,-5.60421 -0.2507,-2.87443 -1.58403,-5.12088 -3.01518,-5.14101 z m 37.14802,0.0797 c -1.48783,-0.0534 -2.77781,2.31709 -2.88132,5.29294 -0.0853,2.43563 0.99859,5.42657 2.5046,5.47952 1.48823,0.0532 2.77841,-2.3168 2.88193,-5.29265 0.10351,-2.97403 -1.01779,-5.42806 -2.50521,-5.47981 z M 188.6912,198.9226 c 2.12902,-0.0175 8.2794,0.10922 8.2794,8.65108 0,9.11254 -4.89785,10.39665 -10.37828,10.39665 -5.48123,0 -5.99632,-6.03779 -5.99632,-6.03779 v -12.67616 c 0,0 6.07511,-0.33081 7.72589,-0.33081 0.10317,0 0.22738,-0.002 0.36931,-0.003 z m 34.26937,0 c 2.12812,-0.0175 8.27821,0.10922 8.27821,8.65108 0,9.11254 -4.89665,10.39665 -10.37768,10.39665 -5.48103,0 -5.99602,-6.03779 -5.99602,-6.03779 v -12.67616 c 0,0 6.07469,-0.33081 7.72647,-0.33081 0.10311,0 0.22714,-0.002 0.36902,-0.003 z"
       id="path1226"
       inkscape:connector-curvature="0" />
  </g>
  <g
     inkscape:groupmode="layer"
     id="layer3"
     inkscape:label="1. réteg 2"
     style="display:none"
     transform="translate(0,-87)">
    <path
       style="fill:none;stroke:#000000;stroke-width:0.26458332px;stroke-linecap:butt;stroke-linejoin:miter;stroke-opacity:1"
       d="m -141.05981,199.84986 169.052224,2.46992 -124.044812,2.19548 -14.270642,3.01879 218.17616,-1.92105 -0.54887,-21.13153 -248.91293,1.92105 z"
       id="path1218"
       inkscape:connector-curvature="0" />
    <path
       style="fill:none;stroke:#000000;stroke-width:0.26458332px;stroke-linecap:butt;stroke-linejoin:miter;stroke-opacity:1"
       d="m 106.20651,285.74814 -171.796575,2.19549 167.405605,2.74436 -9.879675,30.73676 -202.533345,3.29321 40.067576,-41.71418 179.755204,-1.37216 z"
       id="path1220"
       inkscape:connector-curvature="0" />
  </g>
</svg>
