<?xml version="1.0" encoding="UTF-8" standalone="no"?>
<!-- Created with Inkscape (http://www.inkscape.org/) -->

<svg
   xmlns:dc="http://purl.org/dc/elements/1.1/"
   xmlns:cc="http://creativecommons.org/ns#"
   xmlns:rdf="http://www.w3.org/1999/02/22-rdf-syntax-ns#"
   xmlns:svg="http://www.w3.org/2000/svg"
   xmlns="http://www.w3.org/2000/svg"
   xmlns:sodipodi="http://sodipodi.sourceforge.net/DTD/sodipodi-0.dtd"
   xmlns:inkscape="http://www.inkscape.org/namespaces/inkscape"
   width="297mm"
   height="210mm"
   viewBox="0 0 297 210"
   version="1.1"
   id="svg8"
   inkscape:version="0.92.2 (5c3e80d, 2017-08-06)"
   sodipodi:docname="red_with_shadow.svg">
  <defs
     id="defs2">
    <linearGradient
       id="linearGradient861"
       spreadMethod="pad"
       gradientTransform="matrix(843.69043,0,0,843.69043,371.37354,-1169.4922)"
       gradientUnits="userSpaceOnUse"
       y2="0"
       x2="1"
       y1="0"
       x1="0">
      <stop
         id="stop855"
         offset="0"
         style="stop-opacity:1;stop-color:#231f20" />
      <stop
         id="stop857"
         offset="0.32805385"
         style="stop-opacity:1;stop-color:#ffffff" />
      <stop
         id="stop859"
         offset="1"
         style="stop-opacity:1;stop-color:#ffffff" />
    </linearGradient>
    <linearGradient
       id="linearGradient887"
       spreadMethod="pad"
       gradientTransform="matrix(-947.96484,8e-5,-8e-5,-947.96484,1314.3735,-1035.4766)"
       gradientUnits="userSpaceOnUse"
       y2="0"
       x2="1"
       y1="0"
       x1="0">
      <stop
         id="stop877"
         offset="0"
         style="stop-opacity:1;stop-color:#231f20" />
      <stop
         id="stop879"
         offset="0.10075664"
         style="stop-opacity:1;stop-color:#231f20" />
      <stop
         id="stop881"
         offset="0.25281"
         style="stop-opacity:1;stop-color:#231f20" />
      <stop
         id="stop883"
         offset="0.66188847"
         style="stop-opacity:1;stop-color:#ffffff" />
      <stop
         id="stop885"
         offset="1"
         style="stop-opacity:1;stop-color:#ffffff" />
    </linearGradient>
    <linearGradient
       id="linearGradient927"
       spreadMethod="pad"
       gradientTransform="matrix(843.69092,0,0,843.69092,367.37402,-691.01172)"
       gradientUnits="userSpaceOnUse"
       y2="0"
       x2="1"
       y1="0"
       x1="0">
      <stop
         id="stop919"
         offset="0"
         style="stop-opacity:1;stop-color:#ffffff" />
      <stop
         id="stop921"
         offset="0.00562"
         style="stop-opacity:1;stop-color:#ffffff" />
      <stop
         id="stop923"
         offset="0.38362789"
         style="stop-opacity:1;stop-color:#231f20" />
      <stop
         id="stop925"
         offset="1"
         style="stop-opacity:1;stop-color:#231f20" />
    </linearGradient>
    <linearGradient
       id="linearGradient951"
       spreadMethod="pad"
       gradientTransform="matrix(-947.96436,8e-5,-8e-5,-947.96436,1310.3735,-556.99561)"
       gradientUnits="userSpaceOnUse"
       y2="0"
       x2="1"
       y1="0"
       x1="0">
      <stop
         id="stop943"
         offset="0"
         style="stop-opacity:1;stop-color:#ffffff" />
      <stop
         id="stop945"
         offset="0.19662"
         style="stop-opacity:1;stop-color:#ffffff" />
      <stop
         id="stop947"
         offset="0.52787247"
         style="stop-opacity:1;stop-color:#231f20" />
      <stop
         id="stop949"
         offset="1"
         style="stop-opacity:1;stop-color:#231f20" />
    </linearGradient>
    <clipPath
       id="clipPath1120"
       clipPathUnits="userSpaceOnUse">
      <path
         inkscape:connector-curvature="0"
         id="path1118"
         d="m 12150.6,8017.51 v 8.87 l -8157.79,40 c 0,0 -279.07,-16.75 -279.07,207.72 v -296.59 l 8436.86,40" />
    </clipPath>
    <linearGradient
       id="linearGradient1126"
       spreadMethod="pad"
       gradientTransform="matrix(8436.9,0,0,-8436.9,3713.74,8125.8)"
       gradientUnits="userSpaceOnUse"
       y2="0"
       x2="1"
       y1="0"
       x1="0">
      <stop
         id="stop1122"
         offset="0"
         style="stop-opacity:1;stop-color:#231f20" />
      <stop
         id="stop1124"
         offset="1"
         style="stop-opacity:1;stop-color:#ffffff" />
    </linearGradient>
    <clipPath
       id="clipPath1136"
       clipPathUnits="userSpaceOnUse">
      <path
         inkscape:connector-curvature="0"
         id="path1134"
         d="m 11133.1,5635.96 -7469.02,-40 v -5.91 l 7726.62,-40.72 c 593.9,0 1753,0 1753,0 v 713.12 c 0,0 -80,-619.86 -619.8,-619.86 -300.8,0 -426.6,0 -426.6,0 0,0 -346.6,-10.46 -346.6,359.94 0,406.53 0,1779.51 0,1779.51 0,0 -19.5,239.68 189.7,239.68 l -880.8,0.25 c 0,0 324.6,-1.09 324.6,-253.26 0,-213.31 0,-1681.97 0,-1906.15 0,-224.18 -251.1,-226.6 -251.1,-226.6" />
    </clipPath>
    <linearGradient
       id="linearGradient1144"
       spreadMethod="pad"
       gradientTransform="matrix(-9479.65,-8.287e-4,-8.287e-4,9479.65,13143.7,6785.65)"
       gradientUnits="userSpaceOnUse"
       y2="0"
       x2="1"
       y1="0"
       x1="0">
      <stop
         id="stop1138"
         offset="0"
         style="stop-opacity:1;stop-color:#231f20" />
      <stop
         id="stop1140"
         offset="0.247191"
         style="stop-opacity:1;stop-color:#454142" />
      <stop
         id="stop1142"
         offset="1"
         style="stop-opacity:1;stop-color:#ffffff" />
    </linearGradient>
  </defs>
  <sodipodi:namedview
     id="base"
     pagecolor="#ffffff"
     bordercolor="#666666"
     borderopacity="1.0"
     inkscape:pageopacity="0.0"
     inkscape:pageshadow="2"
     inkscape:zoom="0.96037826"
     inkscape:cx="683.67171"
     inkscape:cy="212.99779"
     inkscape:document-units="mm"
     inkscape:current-layer="g1252"
     showgrid="false"
     inkscape:window-width="1600"
     inkscape:window-height="837"
     inkscape:window-x="-8"
     inkscape:window-y="-8"
     inkscape:window-maximized="1" />
  <metadata
     id="metadata5">
    <rdf:RDF>
      <cc:Work
         rdf:about="">
        <dc:format>image/svg+xml</dc:format>
        <dc:type
           rdf:resource="http://purl.org/dc/dcmitype/StillImage" />
        <dc:title />
      </cc:Work>
    </rdf:RDF>
  </metadata>
  <g
     inkscape:groupmode="layer"
     id="layer5"
     inkscape:label="Background"
     style="display:inline"
     sodipodi:insensitive="true">
    <rect
       style="opacity:1;vector-effect:none;fill:#990000;fill-opacity:1;stroke:none;stroke-width:0.80000001;stroke-linecap:butt;stroke-linejoin:miter;stroke-miterlimit:4;stroke-dasharray:none;stroke-dashoffset:0;stroke-opacity:1;paint-order:normal"
       id="rect1903"
       width="277.04504"
       height="94.164177"
       x="9.977478"
       y="57.917912" />
  </g>
  <g
     inkscape:groupmode="layer"
     id="layer4"
     inkscape:label="Shadow"
     style="display:inline"
     sodipodi:insensitive="true">
    <path
       style="display:inline;fill:#000000;fill-opacity:1;fill-rule:nonzero;stroke:none;stroke-width:3.02362204;stroke-linecap:butt;stroke-linejoin:miter;stroke-miterlimit:4;stroke-dasharray:none"
       d="m 204.32227,273 c -10.8127,0.008 -22.61847,1.59225 -34.08789,6.19141 -1.69565,0.67929 27.83428,-5.99059 58.76953,3.9707 6.66553,2.14647 12.63276,4.11368 20.96484,7.08008 15.17117,5.4009 32.30859,12.375 32.30859,12.375 0,0 2.7488,1.2255 5.71875,3.30664 -3.30455,-5.58875 -11.71875,-9.30664 -11.71875,-9.30664 0,0 -17.13742,-6.9741 -32.30859,-12.375 -8.33208,-2.9664 -14.29931,-4.93361 -20.96484,-7.08008 -6.15097,-1.98064 -12.24143,-3.29629 -18.04688,-4.15039 -0.21367,-0.001 -0.4203,-0.0119 -0.63476,-0.0117 z m -68.38086,16.37695 c 0,0 -19.99681,3.61052 -32.67188,7.76172 -15.24404,10.44916 -2.47309,17.62078 -0.83984,18.4668 -1.7331,-4.26457 0.3218,-10.4602 16.53906,-17.74219 z m 76.67773,16.80469 c 0.10755,0.42389 0.16992,0.85448 0.16992,1.29297 0,5.62632 -9.11993,10.18555 -20.37109,10.18555 -5.52756,0 -10.53318,-1.10417 -14.20313,-2.89063 1.27346,5.01391 9.82897,8.89063 20.20313,8.89063 11.25116,0 20.37109,-4.55923 20.37109,-10.18555 0,-2.86169 -2.36883,-5.44277 -6.16992,-7.29297 z m 100.45898,3.78125 c 9.11208,10.95417 8.01563,20.60547 8.01563,20.60547 l -2.30859,19.39453 c 0.29332,0.78777 0.57436,1.61173 0.84179,2.48047 2.15558,8.14945 3.64649,16.20898 3.64649,16.20898 l 3.82031,-32.08398 c 0,0 1.51643,-13.44255 -14.01563,-26.60547 z m 24.94336,9.37695 v 6.07032 c 0.49349,0.33949 1.00238,0.6493 1.52344,0.93164 -0.95005,-1.90279 -1.52344,-4.20345 -1.52344,-7.00196 z m -250.683589,0.002 c -4.312781,-0.0584 -7.168218,1.37228 -9.066407,3.19336 -1.43241,4.79699 -2.312648,10.4401 -2.349609,17.08984 -0.0038,3.93604 1.783203,20.20508 1.783203,20.20508 l 2.894531,-23.93946 c 0,0 2.071472,-20.72598 31.873051,-4.08007 0,0 35.51783,13.87319 72.25195,42.54492 -0.69,-1.14314 -1.49965,-2.23012 -2.47461,-3.20508 -37.95231,-30.56542 -75.77734,-45.33984 -75.77734,-45.33984 -8.381697,-4.68166 -14.569095,-6.40691 -19.134769,-6.46875 z m 208.216799,9.96875 c -6.42629,-0.0893 -11.8086,3.21289 -11.8086,3.21289 0,0 -41.31075,21.96058 -54.6289,27.92773 -16.30126,7.30435 -14.77344,33.36719 -14.77344,33.36719 0,0 -1.59322,20.64173 2.54687,27.73828 0.82568,1.41505 2.39531,1.77137 4.38086,1.4375 -2.01964,-8.88682 -0.92773,-23.17578 -0.92773,-23.17578 0,0 -1.52782,-26.06284 14.77344,-33.36719 13.31815,-5.96715 54.6289,-27.92773 54.6289,-27.92773 0,0 10.64538,-6.51292 19.86914,-0.95508 -4.11768,-6.2964 -9.36519,-8.1926 -14.06054,-8.25781 z m 132.25,6.23828 -89.78321,0.42383 v 6.03125 l 307.9668,-1.46094 67.35352,-1.19336 c 0.59765,-0.0113 0.61578,-0.2999 0.002,-0.30859 l -215.61914,-3.1504 z m 471.53906,3.05664 c 0,0 9.35956,0.0386 16.58008,4.53125 -1.04708,-1.80142 -2.40544,-3.28967 -3.93164,-4.52734 z m 49.57422,0.0137 c -3.32712,5.34197 -2.76367,12.32031 -2.76367,12.32031 v 135.97657 c 0,12.1732 4.90025,18.95496 10.48437,22.74023 -2.66961,-3.95459 -4.48437,-9.34785 -4.48437,-16.74023 V 356.93945 c 0,0 -1.49156,-18.31445 14.49414,-18.31445 z m -297.88672,14.23633 c 0,0 3.1315,0.0325 6.38672,1.56641 -0.24774,-0.56258 -0.52587,-1.08445 -0.83203,-1.56641 z m 129.51953,0 c 0,0 3.13347,0.0325 6.38867,1.56641 -0.24777,-0.56264 -0.52778,-1.0844 -0.83398,-1.56641 z m -153.79883,0.008 c -2.11701,4.15505 -1.7832,8.94141 -1.7832,8.94141 v 124.26367 c 0,7.99 4.04453,11.71659 7.5293,13.45117 -0.93299,-1.94107 -1.5293,-4.38239 -1.5293,-7.45117 V 367.80469 c 0,0 -1.04832,-14.94141 12.22852,-14.94141 z m -189.52148,0.33789 c 0,0 4.0631,0.52466 7.93359,2.59766 -0.42351,-0.967 -0.98066,-1.83 -1.63086,-2.59766 z m 19.60937,0 c -4.49219,2.20385 -4.6875,6.56641 -4.6875,6.56641 v 110.68164 c 0,36.23989 -41.42187,34.9707 -41.42187,34.9707 h -34.63281 c -13.29865,0 -22.58579,-3.54786 -29.07813,-8.61328 6.28263,8.04339 16.96717,14.61328 35.07813,14.61328 h 34.63281 c 0,0 41.42187,1.26919 41.42187,-34.9707 v -110.6819 c 0,0 0.34224,-7.81055 10.86524,-7.81055 2.00626,0 3.64963,0.23545 5.0039,0.62891 -0.37184,-1.7469 -1.44556,-4.0038 -4.38867,-5.38477 z m 48.02735,0 42.68945,104.00781 1.90625,-3.97265 -41.05859,-100.03516 z m 192.87695,0.12695 c -5.04593,0.0166 -10.19407,0.26368 -15.10742,0.26368 l -0.0684,60.19726 c 0,0 2.38597,0.24049 6.00586,0.28711 l 0.0625,-54.48437 c 4.91335,0 10.06149,-0.24705 15.10742,-0.26368 8.99187,-0.0298 17.65744,0.67585 24.08398,4.82813 -6.20378,-9.53697 -17.83809,-10.8687 -30.08398,-10.82813 z m 129.52148,0 c -5.04631,0.0166 -10.19538,0.26368 -15.10937,0.26368 l -0.0684,60.19726 c 0,0 2.38693,0.24042 6.00586,0.28711 l 0.0625,-54.48437 c 4.91399,0 10.06306,-0.24705 15.10937,-0.26368 8.99416,-0.0298 17.66088,0.67574 24.0879,4.83008 -6.20346,-9.53904 -17.84021,-10.87066 -30.0879,-10.83008 z m -470.71484,0.2168 c -2.65609,4.88491 -2.17969,10.97461 -2.17969,10.97461 v 99.82031 c 0,18.18039 6.60259,27.30276 13.26368,31.66407 -4.13292,-5.1936 -7.26368,-13.25936 -7.26368,-25.66407 v -99.82031 c 0,0 -1.33548,-16.97461 12.8125,-16.97461 z m 399.41211,7.41211 c 3.80975,5.26844 5.96094,12.31157 5.96094,21.64258 0,28.44797 -27.44969,31.94606 -25.95508,34.43945 0.49712,0.82565 4.82218,1.33073 10.37891,3.10742 7.41872,-3.55745 21.57617,-11.08903 21.57617,-31.54687 0,-13.46486 -4.4618,-22.18608 -11.96094,-27.64258 z m 129.52344,0 c 3.81056,5.26844 5.96289,12.31157 5.96289,21.64258 0,28.44797 -27.4567,31.94606 -25.95899,34.43945 0.49538,0.8257 4.82203,1.33046 10.37891,3.10742 7.4189,-3.55729 21.58008,-11.08829 21.58008,-31.54687 0,-13.46475 -4.46255,-22.18607 -11.96289,-27.64258 z m -283.60352,5.93945 -61.02539,127.99024 4.21485,9.74219 56.81054,-119.14844 z m -119.51367,0.67774 v 117.47266 c 0,12.19235 4.59919,15.67614 7.74414,16.64062 -1.03952,-2.47393 -1.74414,-5.88934 -1.74414,-10.64062 V 381.44141 Z M 135.0625,402.13477 c 1.86662,3.43026 3.22264,7.99556 3.66797,13.10156 0.98113,11.20838 -2.7639,20.68569 -8.37109,21.18164 -0.75922,0.0655 -1.51268,-0.0504 -2.25196,-0.30469 2.2332,4.10097 5.20008,6.56808 8.25196,6.30469 5.60719,-0.49595 9.35222,-9.97326 8.37109,-21.18164 -0.84548,-9.69394 -4.95104,-17.47894 -9.66797,-19.10156 z m 139.61719,0.0976 c 1.7403,3.75628 2.72263,8.9187 2.52539,14.58594 -0.39126,11.24731 -5.26777,20.20498 -10.89258,20.00391 -0.18928,-0.007 -0.37685,-0.0279 -0.5625,-0.0586 1.66855,3.50936 3.94273,5.96649 6.5625,6.0586 5.62481,0.20107 10.50132,-8.7566 10.89258,-20.00391 0.369,-10.60198 -3.3811,-19.45027 -8.52539,-20.58594 z m -23.51563,11.85156 c 0,0 -2.94455,2.53858 -6.92773,5.52149 -0.20254,4.99342 -0.16303,10.74969 0.67383,15.60351 -1.10113,-5.64086 -27.3711,-2.99121 -27.3711,23.5625 v 34.50391 c 0,7.66579 3.07745,11.66814 7.36914,13.53711 -0.86573,-1.99583 -1.36914,-4.46725 -1.36914,-7.53711 v -34.50391 c 0,-26.55371 26.26997,-29.20336 27.3711,-23.5625 -1.91033,-11.07995 0.2539,-27.125 0.2539,-27.125 z m 462,8.92969 c -0.53643,0.004 -1.00655,0.0117 -1.39648,0.0117 -6.23917,0 -29.19922,1.25 -29.19922,1.25 v 47.91016 c 0,0 1.14049,13.25007 10.85352,19.55468 -4.23579,-6.32166 -4.85352,-13.55468 -4.85352,-13.55468 v -47.91016 c 0,0 22.96005,-1.25 29.19922,-1.25 0.38993,0 0.86005,-0.008 1.39648,-0.0117 4.23598,-0.0348 12.68098,0.0883 19.73242,4.91602 -7.39524,-10.74254 -20.18022,-10.96166 -25.73242,-10.91602 z m 129.52149,0 c -0.53624,0.004 -1.00483,0.0117 -1.39453,0.0117 -6.24295,0 -29.20313,1.25 -29.20313,1.25 v 47.91016 c 0,0 1.14184,13.24731 10.85156,19.55273 -4.23419,-6.32113 -4.85156,-13.55273 -4.85156,-13.55273 v -47.91016 c 0,0 22.96018,-1.25 29.20313,-1.25 0.3897,0 0.85829,-0.008 1.39453,-0.0117 4.2335,-0.0348 12.67649,0.0887 19.72656,4.91406 -7.39492,-10.74037 -20.17709,-10.95969 -25.72656,-10.91406 z M 83.996094,427.4687 v 23.39648 c 3.232177,7.01741 6.5625,10.49415 6.5625,10.49415 0,-10e-6 0.770675,1.77187 6.222656,6.37109 -0.112181,-0.18187 -0.222656,-0.37109 -0.222656,-0.37109 0,0 -12.5625,-12.99846 -12.5625,-39.89063 z m 681.927736,5.58594 c 4.66145,6.02399 7.97851,14.5736 7.97851,26.90234 0,40.92461 -48.95703,41.03125 -48.95703,41.03125 h -12.63086 c -0.36271,0.003 -0.71982,0.0176 -1.08398,0.0176 -0.17626,0 -0.34012,-0.0143 -0.51367,-0.0176 h -49.01563 c -2.01675,3.30253 -5.43654,6 -11.24414,6 h 80.48828 c 0,0 48.95703,-0.10664 48.95703,-41.03125 0,-17.1745 -6.42059,-27.03627 -13.97851,-32.90234 z m 129.52344,0.002 c 4.66081,6.02389 7.97656,14.57312 7.97656,26.90039 0,40.92461 -48.95899,41.03125 -48.95899,41.03125 h -12.63086 c -0.36256,0.003 -0.71996,0.0176 -1.08398,0.0176 -0.17625,0 -0.34013,-0.0143 -0.51367,-0.0176 H 791.2207 c -2.01675,3.30253 -5.4346,6 -11.24218,6 h 80.48632 c 0,0 48.95899,-0.10664 48.95899,-41.03125 0,-17.17246 -6.41958,-27.03406 -13.97656,-32.90039 z M 86.945312,471.53906 c 2.310238,3.01943 6.389646,6.90262 13.689458,11.44141 17.82459,11.08222 72.3164,45.1543 72.3164,45.1543 0,0 16.82763,13.43234 57.71875,-5.77344 17.63785,-8.28367 23.86818,-11.16002 26.06836,-12.14844 -3.21632,1.29103 -16.36745,6.14209 -25.12109,2.89649 -2.52428,1.18244 -3.6925,1.72334 -6.94727,3.25195 -40.89112,19.20578 -57.71875,5.77344 -57.71875,5.77344 0,0 -54.49181,-34.07208 -72.316404,-45.1543 -3.119346,-1.93951 -5.626272,-3.75472 -7.689454,-5.44141 z m 169.792968,38.67383 c 0.46545,-0.18671 1.01563,-0.4082 1.01563,-0.4082 0,0 0.72666,-0.37454 -1.01563,0.4082 z m 801.85942,-37.1582 c 0,0 -1.183,9.1372 -6,19.38476 v 29.10743 H 918.64453 l -65.17773,-0.34376 -110.08594,0.58985 -207.00195,2.64453 c -1.11689,0.0113 -1.10825,0.47266 0.002,0.47266 l 53.14453,0.87109 335.11914,1.76758 h 133.95322 z m -452.83012,27.95117 c -1.92282,3.20145 -5.53607,6 -12.3125,6 h 49.99219 c 0,0 -6.48821,-0.47498 -10.10743,-6 z m -127.55274,1.01758 c -1.66173,3.25817 -4.65629,6 -10.03515,6 h 29.65234 c -1.8214,-0.14559 -5.36806,-1.11175 -7.56445,-6 z m 19.61719,6 c 0.70783,0.0567 1.16797,0 1.16797,0 z"
       transform="scale(0.26458333)"
       id="path1898"
       inkscape:connector-curvature="0" />
  </g>
  <g
     style="display:inline"
     id="g1252"
     inkscape:groupmode="layer"
     inkscape:label="Logo"
     transform="translate(0,-87)"
     sodipodi:insensitive="true">
    <path
       style="fill:#ffffff;fill-opacity:1;fill-rule:nonzero;stroke:none;stroke-width:0.02021774"
       d="m 52.472883,157.6435 c -2.86086,0.002 -5.98458,0.4215 -9.0192,1.63836 -0.44864,0.17973 7.36455,-1.58512 15.5495,1.05047 1.76359,0.56792 3.3425,1.08834 5.54703,1.8732 4.01404,1.42899 8.54803,3.27433 8.54803,3.27433 0,0 7.87487,3.47883 -0.17947,7.18716 -6.17248,2.84201 -16.61834,7.81474 -16.61834,7.81474 0,0 -6.05813,2.4944 -12.03853,-0.62904 -7.5487,-3.94267 -17.06732,-9.29759 -17.06732,-9.29759 0,0 -5.52664,-2.6413 2.69505,-6.33306 l 4.49095,-2.24518 c 0,0 -5.92386,1.06871 -9.20845,2.24518 -2.39391,0.72643 -6.62928,3.38867 -6.67186,11.04938 -0.001,1.04141 0.47177,5.34594 0.47177,5.34594 l 0.76559,-6.33363 c 0,0 0.54839,-5.48373 8.43339,-1.0795 0,0 10.00778,3.90879 20.04933,11.99589 1.50966,1.50965 1.61761,3.98744 1.61761,5.02078 l -0.006,28.36989 c 0,0 0.35072,7.10264 -7.27602,2.8745 -17.51867,-9.7124 -18.59548,-12.39747 -18.59548,-12.39747 0,0 -3.32408,-3.43927 -3.32408,-10.55449 v 9.83571 c 0,0 -0.3138,1.91958 4.40239,4.85196 4.71609,2.93217 19.1339,11.94703 19.1339,11.94703 0,0 4.45199,3.55394 15.2711,-1.52759 4.66668,-2.19172 6.3154,-2.95268 6.89753,-3.2142 -1.30414,0.52348 -8.78405,3.26231 -8.78405,-2.89376 v -9.12938 c 0,-7.02567 6.95032,-7.72632 7.24166,-6.23384 -0.50544,-2.93157 0.0672,-7.1771 0.0672,-7.1771 0,0 -6.3508,5.5007 -7.48036,3.56486 -1.0954,-1.87763 -0.67406,-7.3391 -0.67406,-7.3391 0,0 -0.40435,-6.89587 3.90869,-8.82848 3.52376,-1.57881 14.45431,-7.38944 14.45431,-7.38944 0,0 5.69635,-3.4944 7.90595,3.68332 0.57033,2.15621 0.96487,4.28837 0.96487,4.28837 l 1.01079,-8.48908 c 0,0 0.73937,-6.47854 -9.88161,-10.51037 -10.57894,-4.01584 -11.28659,-4.294 -11.28659,-4.294 0,0 -5.02141,-2.01853 -11.31533,-2.01477 z m 13.8685,62.76277 c 0.12315,-0.0494 0.26862,-0.1081 0.26862,-0.1081 0,0 0.19236,-0.099 -0.26862,0.1081 z m -15.43103,-54.74842 c -2.97726,0 -5.39008,1.20651 -5.39008,2.69474 0,1.48863 2.41282,2.69504 5.39008,2.69504 2.97687,0 5.39008,-1.20641 5.39008,-2.69504 0,-1.48823 -2.41321,-2.69474 -5.39008,-2.69474 z m 36.93687,4.24661 v 5.99631 l 81.482927,-0.38647 17.82073,-0.31541 c 0.15813,-0.003 0.163,-0.0794 5.9e-4,-0.0817 L 130.1022,174.2835 93.489323,174.10403 c 0,0 -5.6421,0.33875 -5.6421,-4.19953 z m 148.516877,5.09719 c 0,0 6.56257,0.0223 6.56257,5.12057 v 38.53789 c 0,4.53242 -5.07674,4.58128 -5.07674,4.58128 l -42.75105,0.22893 -54.76944,0.69981 c -0.29551,0.003 -0.29345,0.12499 2.9e-4,0.12499 l 14.0616,0.23041 88.66684,0.46733 h 35.44156 v -14.41787 c 0,0 -1.61752,12.53225 -12.53105,12.53225 h -8.62472 c 0,0 -7.00741,0.21145 -7.00741,-7.27721 v -35.97731 c 0,0 -0.3943,-4.84574 3.83525,-4.84574 z m -65.69977,3.77068 c 0,0 3.5933,0.0171 3.5933,3.6466 0,3.16953 -0.0127,32.38017 -0.0127,32.38017 0,0 0.23555,4.75423 -3.73219,4.75423 h 21.29586 c 0,0 12.95308,-0.0283 12.95308,-10.85627 0,-10.82823 -9.63912,-10.69509 -10.03681,-11.3556 -0.39545,-0.65971 6.86762,-1.58534 6.86762,-9.1122 0,-7.52707 -5.26335,-9.45693 -12.26273,-9.45693 z m 34.26908,0 c 0,0 3.59329,0.0171 3.59329,3.6466 0,3.16953 -0.0127,32.38017 -0.0127,32.38017 0,0 0.23554,4.75423 -3.73219,4.75423 h 21.29527 c 0,0 12.95366,-0.0283 12.95366,-10.85627 0,-10.82823 -9.63994,-10.69509 -10.03621,-11.3556 -0.39627,-0.65971 6.86821,-1.58534 6.86821,-9.1122 0,-7.52707 -5.26483,-9.45693 -12.26421,-9.45693 z m -46.04462,0.002 -14.01421,29.19529 -11.94674,-29.10585 h -18.83122 c 0,0 3.91846,0.48951 3.91846,3.41441 v 29.19499 c 0,2.13358 -2.33493,7.72558 -9.34261,7.72558 h -8.44406 c -1.751867,0 -6.467797,-1.4389 -6.467797,-9.34202 v -26.4108 c 0,0 -0.35349,-4.49154 3.38983,-4.49154 h -9.22918 v 30.90234 c 0,2.51307 1.07768,10.86901 11.58808,10.86901 h 9.163127 c 0,0 10.95964,0.3359 10.95964,-9.25257 v -29.28473 c 0,0 0.0903,-2.06659 2.87451,-2.06659 2.7846,0 2.96455,1.70626 2.96455,2.24547 v 33.05896 c 0,0 0.31818,4.40092 -3.18637,4.40092 h 7.84583 c -0.7281,-0.0582 -2.50373,-0.5971 -2.50373,-4.49184 v -31.08151 l 15.00279,34.6751 16.61863,-34.85427 v 31.44105 c 0,0 0.37184,4.04226 -3.81747,4.04226 h 13.22702 c 0,0 -3.30158,-0.24076 -3.30158,-3.95252 v -32.87802 c 0,0 -0.2773,-3.95312 3.23553,-3.95312 z m -28.75816,41.05287 c 0.18728,0.015 0.30889,0 0.30889,0 z m 54.48068,-39.34255 c 4.76818,-0.0158 9.18981,0.74908 9.18981,8.07327 0,9.37739 -13.20512,7.92371 -13.20512,7.92371 l 0.0181,-15.92709 c 1.29999,0 2.66217,-0.0655 3.99724,-0.0699 z m 34.26938,0 c 4.7685,-0.0158 9.19009,0.74908 9.19009,8.07327 0,9.37739 -13.2057,7.92371 -13.2057,7.92371 l 0.0181,-15.92709 c 1.30016,0 2.66237,-0.0655 3.99754,-0.0699 z m -185.190157,11.2392 c -0.0462,-6.5e-4 -0.0926,0.001 -0.1389,0.005 -1.4831,0.1306 -2.47424,2.63948 -2.21527,5.6042 0.25919,2.96796 1.67161,5.26395 3.15439,5.13598 1.48357,-0.13122 2.47455,-2.63866 2.21496,-5.60421 -0.2507,-2.87443 -1.58403,-5.12088 -3.01518,-5.14101 z m 37.14802,0.0797 c -1.48783,-0.0534 -2.77781,2.31709 -2.88132,5.29294 -0.0853,2.43563 0.99859,5.42657 2.5046,5.47952 1.48823,0.0532 2.77841,-2.3168 2.88193,-5.29265 0.10351,-2.97403 -1.01779,-5.42806 -2.50521,-5.47981 z M 188.6912,198.9226 c 2.12902,-0.0175 8.2794,0.10922 8.2794,8.65108 0,9.11254 -4.89785,10.39665 -10.37828,10.39665 -5.48123,0 -5.99632,-6.03779 -5.99632,-6.03779 v -12.67616 c 0,0 6.07511,-0.33081 7.72589,-0.33081 0.10317,0 0.22738,-0.002 0.36931,-0.003 z m 34.26937,0 c 2.12812,-0.0175 8.27821,0.10922 8.27821,8.65108 0,9.11254 -4.89665,10.39665 -10.37768,10.39665 -5.48103,0 -5.99602,-6.03779 -5.99602,-6.03779 v -12.67616 c 0,0 6.07469,-0.33081 7.72647,-0.33081 0.10311,0 0.22714,-0.002 0.36902,-0.003 z"
       id="path1226"
       inkscape:connector-curvature="0" />
  </g>
</svg>
